<svg width="153" height="32" viewBox="0 0 153 32" fill="none" xmlns="http://www.w3.org/2000/svg">
<path d="M9.21875 31H3.57422V8.91016C3.57422 7.11328 3.9388 5.59635 4.66797 4.35938C5.41016 3.1224 6.46484 2.1849 7.83203 1.54688C9.21224 0.908854 10.8789 0.589844 12.832 0.589844C13.9388 0.589844 15.013 0.700521 16.0547 0.921875C17.0964 1.13021 18.1706 1.40365 19.2773 1.74219L18.457 6.25391C17.7409 6.03255 16.9727 5.82422 16.1523 5.62891C15.332 5.43359 14.3424 5.33594 13.1836 5.33594C11.8815 5.33594 10.8919 5.64193 10.2148 6.25391C9.55078 6.85286 9.21875 7.73828 9.21875 8.91016V31ZM13.418 9.86719V13.8516H0.429688V9.86719H13.418ZM21.8945 9.86719V31H16.25V9.86719H21.8945ZM32.1094 14.3789V31H26.4844V9.86719H31.7578L32.1094 14.3789ZM31.2891 19.6914H29.7656C29.7656 18.1289 29.9674 16.7227 30.3711 15.4727C30.7747 14.2096 31.3411 13.1354 32.0703 12.25C32.7995 11.3516 33.6654 10.668 34.668 10.1992C35.6836 9.71745 36.8164 9.47656 38.0664 9.47656C39.056 9.47656 39.9609 9.61979 40.7812 9.90625C41.6016 10.1927 42.3047 10.6484 42.8906 11.2734C43.4896 11.8984 43.9453 12.7253 44.2578 13.7539C44.5833 14.7826 44.7461 16.0391 44.7461 17.5234V31H39.082V17.5039C39.082 16.5664 38.9518 15.8372 38.6914 15.3164C38.431 14.7956 38.0469 14.431 37.5391 14.2227C37.0443 14.0013 36.4323 13.8906 35.7031 13.8906C34.9479 13.8906 34.2904 14.0404 33.7305 14.3398C33.1836 14.6393 32.7279 15.056 32.3633 15.5898C32.0117 16.1107 31.7448 16.7227 31.5625 17.4258C31.3802 18.1289 31.2891 18.8841 31.2891 19.6914ZM60.4297 26.2344V16.8203C60.4297 16.1432 60.319 15.5638 60.0977 15.082C59.8763 14.5872 59.5312 14.2031 59.0625 13.9297C58.6068 13.6562 58.0143 13.5195 57.2852 13.5195C56.6602 13.5195 56.1198 13.6302 55.6641 13.8516C55.2083 14.0599 54.8568 14.3659 54.6094 14.7695C54.362 15.1602 54.2383 15.6224 54.2383 16.1562H48.6133C48.6133 15.2578 48.8216 14.4049 49.2383 13.5977C49.6549 12.7904 50.2604 12.0807 51.0547 11.4688C51.849 10.8438 52.793 10.3555 53.8867 10.0039C54.9935 9.65234 56.2305 9.47656 57.5977 9.47656C59.2383 9.47656 60.6966 9.75 61.9727 10.2969C63.2487 10.8438 64.2513 11.6641 64.9805 12.7578C65.7227 13.8516 66.0938 15.2188 66.0938 16.8594V25.9023C66.0938 27.0612 66.1654 28.0117 66.3086 28.7539C66.4518 29.4831 66.6602 30.1211 66.9336 30.668V31H61.25C60.9766 30.4271 60.7682 29.7109 60.625 28.8516C60.4948 27.9792 60.4297 27.1068 60.4297 26.2344ZM61.1719 18.1289L61.2109 21.3125H58.0664C57.3242 21.3125 56.6797 21.3971 56.1328 21.5664C55.5859 21.7357 55.1367 21.9766 54.7852 22.2891C54.4336 22.5885 54.1732 22.9401 54.0039 23.3438C53.8477 23.7474 53.7695 24.1901 53.7695 24.6719C53.7695 25.1536 53.8802 25.5898 54.1016 25.9805C54.3229 26.3581 54.6419 26.6576 55.0586 26.8789C55.4753 27.0872 55.9635 27.1914 56.5234 27.1914C57.3698 27.1914 58.1055 27.0221 58.7305 26.6836C59.3555 26.3451 59.8372 25.9284 60.1758 25.4336C60.5273 24.9388 60.7096 24.4701 60.7227 24.0273L62.207 26.4102C61.9987 26.944 61.7122 27.4974 61.3477 28.0703C60.9961 28.6432 60.5469 29.1836 60 29.6914C59.4531 30.1862 58.7956 30.5964 58.0273 30.9219C57.2591 31.2344 56.3477 31.3906 55.293 31.3906C53.9518 31.3906 52.7344 31.1237 51.6406 30.5898C50.5599 30.043 49.7005 29.2943 49.0625 28.3438C48.4375 27.3802 48.125 26.2865 48.125 25.0625C48.125 23.9557 48.3333 22.9727 48.75 22.1133C49.1667 21.2539 49.7786 20.5312 50.5859 19.9453C51.4062 19.3464 52.4284 18.8971 53.6523 18.5977C54.8763 18.2852 56.2956 18.1289 57.9102 18.1289H61.1719ZM75.9375 14.3789V31H70.3125V9.86719H75.5859L75.9375 14.3789ZM75.1172 19.6914H73.5938C73.5938 18.1289 73.7956 16.7227 74.1992 15.4727C74.6029 14.2096 75.1693 13.1354 75.8984 12.25C76.6276 11.3516 77.4935 10.668 78.4961 10.1992C79.5117 9.71745 80.6445 9.47656 81.8945 9.47656C82.8841 9.47656 83.7891 9.61979 84.6094 9.90625C85.4297 10.1927 86.1328 10.6484 86.7188 11.2734C87.3177 11.8984 87.7734 12.7253 88.0859 13.7539C88.4115 14.7826 88.5742 16.0391 88.5742 17.5234V31H82.9102V17.5039C82.9102 16.5664 82.7799 15.8372 82.5195 15.3164C82.2591 14.7956 81.875 14.431 81.3672 14.2227C80.8724 14.0013 80.2604 13.8906 79.5312 13.8906C78.776 13.8906 78.1185 14.0404 77.5586 14.3398C77.0117 14.6393 76.556 15.056 76.1914 15.5898C75.8398 16.1107 75.5729 16.7227 75.3906 17.4258C75.2083 18.1289 75.1172 18.8841 75.1172 19.6914ZM101.582 26.9961C102.272 26.9961 102.884 26.8659 103.418 26.6055C103.952 26.332 104.368 25.9544 104.668 25.4727C104.98 24.9779 105.143 24.3984 105.156 23.7344H110.449C110.436 25.2188 110.039 26.5404 109.258 27.6992C108.477 28.8451 107.428 29.75 106.113 30.4141C104.798 31.0651 103.327 31.3906 101.699 31.3906C100.059 31.3906 98.6263 31.1172 97.4023 30.5703C96.1914 30.0234 95.1823 29.2682 94.375 28.3047C93.5677 27.3281 92.9622 26.1953 92.5586 24.9062C92.1549 23.6042 91.9531 22.2109 91.9531 20.7266V20.1602C91.9531 18.6628 92.1549 17.2695 92.5586 15.9805C92.9622 14.6784 93.5677 13.5456 94.375 12.582C95.1823 11.6055 96.1914 10.8438 97.4023 10.2969C98.6133 9.75 100.033 9.47656 101.66 9.47656C103.392 9.47656 104.909 9.80859 106.211 10.4727C107.526 11.1367 108.555 12.0872 109.297 13.3242C110.052 14.5482 110.436 16 110.449 17.6797H105.156C105.143 16.9766 104.993 16.3385 104.707 15.7656C104.434 15.1927 104.03 14.737 103.496 14.3984C102.975 14.0469 102.331 13.8711 101.562 13.8711C100.742 13.8711 100.072 14.0469 99.5508 14.3984C99.0299 14.737 98.6263 15.2057 98.3398 15.8047C98.0534 16.3906 97.8516 17.0612 97.7344 17.8164C97.6302 18.5586 97.5781 19.3398 97.5781 20.1602V20.7266C97.5781 21.5469 97.6302 22.3346 97.7344 23.0898C97.8385 23.8451 98.0339 24.5156 98.3203 25.1016C98.6198 25.6875 99.0299 26.1497 99.5508 26.4883C100.072 26.8268 100.749 26.9961 101.582 26.9961ZM123.438 31.3906C121.797 31.3906 120.326 31.1302 119.023 30.6094C117.721 30.0755 116.615 29.3398 115.703 28.4023C114.805 27.4648 114.115 26.3776 113.633 25.1406C113.151 23.8906 112.91 22.5625 112.91 21.1562V20.375C112.91 18.7734 113.138 17.3086 113.594 15.9805C114.049 14.6523 114.701 13.5 115.547 12.5234C116.406 11.5469 117.448 10.7982 118.672 10.2773C119.896 9.74349 121.276 9.47656 122.812 9.47656C124.31 9.47656 125.638 9.72396 126.797 10.2188C127.956 10.7135 128.926 11.4167 129.707 12.3281C130.501 13.2396 131.1 14.3333 131.504 15.6094C131.908 16.8724 132.109 18.2786 132.109 19.8281V22.1719H115.312V18.4219H126.582V17.9922C126.582 17.2109 126.439 16.5143 126.152 15.9023C125.879 15.2773 125.462 14.7826 124.902 14.418C124.342 14.0534 123.626 13.8711 122.754 13.8711C122.012 13.8711 121.374 14.0339 120.84 14.3594C120.306 14.6849 119.87 15.1406 119.531 15.7266C119.206 16.3125 118.958 17.0026 118.789 17.7969C118.633 18.5781 118.555 19.4375 118.555 20.375V21.1562C118.555 22.0026 118.672 22.7839 118.906 23.5C119.154 24.2161 119.499 24.8346 119.941 25.3555C120.397 25.8763 120.944 26.2799 121.582 26.5664C122.233 26.8529 122.969 26.9961 123.789 26.9961C124.805 26.9961 125.749 26.8008 126.621 26.4102C127.507 26.0065 128.268 25.401 128.906 24.5938L131.641 27.5625C131.198 28.2005 130.592 28.8125 129.824 29.3984C129.069 29.9844 128.158 30.4661 127.09 30.8438C126.022 31.2083 124.805 31.3906 123.438 31.3906ZM146.738 25.1602C146.738 24.7565 146.621 24.3919 146.387 24.0664C146.152 23.7409 145.716 23.4414 145.078 23.168C144.453 22.8815 143.548 22.6211 142.363 22.3867C141.296 22.1523 140.299 21.8594 139.375 21.5078C138.464 21.1432 137.669 20.707 136.992 20.1992C136.328 19.6914 135.807 19.0924 135.43 18.4023C135.052 17.6992 134.863 16.8984 134.863 16C134.863 15.1146 135.052 14.2812 135.43 13.5C135.82 12.7188 136.374 12.0286 137.09 11.4297C137.819 10.8177 138.704 10.3424 139.746 10.0039C140.801 9.65234 141.986 9.47656 143.301 9.47656C145.137 9.47656 146.712 9.76953 148.027 10.3555C149.355 10.9414 150.371 11.7487 151.074 12.7773C151.79 13.793 152.148 14.9518 152.148 16.2539H146.523C146.523 15.707 146.406 15.2188 146.172 14.7891C145.951 14.3464 145.599 14.0013 145.117 13.7539C144.648 13.4935 144.036 13.3633 143.281 13.3633C142.656 13.3633 142.116 13.474 141.66 13.6953C141.204 13.9036 140.853 14.1901 140.605 14.5547C140.371 14.9062 140.254 15.2969 140.254 15.7266C140.254 16.0521 140.319 16.3451 140.449 16.6055C140.592 16.8529 140.82 17.0807 141.133 17.2891C141.445 17.4974 141.849 17.6927 142.344 17.875C142.852 18.0443 143.477 18.2005 144.219 18.3438C145.742 18.6562 147.103 19.0664 148.301 19.5742C149.499 20.069 150.449 20.7461 151.152 21.6055C151.855 22.4518 152.207 23.5651 152.207 24.9453C152.207 25.8828 151.999 26.7422 151.582 27.5234C151.165 28.3047 150.566 28.9883 149.785 29.5742C149.004 30.1471 148.066 30.5964 146.973 30.9219C145.892 31.2344 144.674 31.3906 143.32 31.3906C141.354 31.3906 139.688 31.0391 138.32 30.3359C136.966 29.6328 135.938 28.7409 135.234 27.6602C134.544 26.5664 134.199 25.4466 134.199 24.3008H139.531C139.557 25.069 139.753 25.6875 140.117 26.1562C140.495 26.625 140.97 26.9635 141.543 27.1719C142.129 27.3802 142.76 27.4844 143.438 27.4844C144.167 27.4844 144.772 27.3867 145.254 27.1914C145.736 26.9831 146.1 26.7096 146.348 26.3711C146.608 26.0195 146.738 25.6159 146.738 25.1602Z" fill="white"/>
</svg>
