<svg width="248" height="50" viewBox="0 0 248 50" fill="none" xmlns="http://www.w3.org/2000/svg">
<path fill-rule="evenodd" clip-rule="evenodd" d="M36.4088 14.8706C36.5682 15.0827 36.7051 15.3112 36.818 15.5539C43.4177 17.2199 48.2762 22.7328 48.2762 29.2593C48.2762 37.1008 41.2616 43.4805 32.6411 43.4805C28.1411 43.4805 24.0785 41.7411 21.2238 38.9631H10.385C8.05248 38.9631 6.15454 37.2368 6.15454 35.115C6.15454 33.8963 6.78108 32.809 7.75616 32.1034C6.78108 31.3979 6.15454 30.3105 6.15454 29.0918C6.15454 27.8733 6.78108 26.7858 7.75616 26.0802C6.78108 25.3747 6.15454 24.2873 6.15454 23.0688C6.15454 21.8501 6.78108 20.7627 7.75616 20.0572C6.78108 19.3516 6.15454 18.2643 6.15454 17.0456C6.15454 14.9238 8.05248 13.1974 10.385 13.1974H12.7839C12.3154 12.5783 12.0403 11.8292 12.0403 11.0224C12.0403 10.2158 12.3154 9.46669 12.7839 8.84741H5.41935C3.08679 8.84741 1.18884 7.12122 1.18884 4.9994C1.18884 2.87757 3.08679 1.15125 5.41935 1.15125H27.9506C30.2831 1.15125 32.1811 2.87757 32.1811 4.9994C32.1811 5.80605 31.9073 6.55514 31.4388 7.17442H38.8034C41.136 7.17442 43.0339 8.9006 43.0339 11.0224C43.0339 13.1443 41.136 14.8706 38.8034 14.8706H36.4088ZM41.1938 11.0224C41.1938 9.82324 40.1214 8.84741 38.8034 8.84741H16.2708C14.9528 8.84741 13.8804 9.82324 13.8804 11.0224C13.8804 12.2218 14.9528 13.1974 16.2708 13.1974H32.9177H38.8034C40.1214 13.1974 41.1938 12.2218 41.1938 11.0224ZM3.02751 4.9994C3.02751 6.19859 4.10138 7.17442 5.41935 7.17442H27.9506C29.2699 7.17442 30.3424 6.19859 30.3424 4.9994C30.3424 3.80007 29.2699 2.82438 27.9506 2.82438H5.41935C4.10138 2.82438 3.02751 3.80007 3.02751 4.9994ZM32.9177 14.8706H10.385C9.06707 14.8706 7.99463 15.8463 7.99463 17.0456C7.99463 18.2449 9.06707 19.2206 10.385 19.2206H21.578C24.4101 16.6383 28.3245 15.0379 32.6411 15.0379C33.0856 15.0379 33.5259 15.0558 33.9605 15.0891C33.643 14.9489 33.2874 14.8706 32.9177 14.8706ZM20.006 20.8938H10.385C9.06707 20.8938 7.99463 21.8694 7.99463 23.0688C7.99463 24.2681 9.06707 25.2438 10.385 25.2438H17.6424C18.156 23.6622 18.9632 22.1948 20.006 20.8938ZM17.2205 26.9168H10.385C9.06707 26.9168 7.99463 27.8925 7.99463 29.0918C7.99463 30.2911 9.06707 31.2668 10.385 31.2668H17.164C17.061 30.6107 17.0074 29.9407 17.0074 29.2593C17.0074 28.4614 17.0808 27.6791 17.2205 26.9168ZM7.99463 35.115C7.99463 36.3143 9.06707 37.29 10.385 37.29H19.7464C18.7572 35.9805 18.0036 34.5138 17.5394 32.94H10.385C9.06707 32.94 7.99463 33.9156 7.99463 35.115ZM18.8461 29.2593C18.8461 36.1783 25.0352 41.8074 32.6411 41.8074C40.2484 41.8074 46.4361 36.1783 46.4361 29.2593C46.4361 22.3401 40.2484 16.7111 32.6411 16.7111C25.0352 16.7111 18.8461 22.3401 18.8461 29.2593ZM30.2958 26.3999C30.2958 27.4163 31.3457 28.2432 32.6368 28.2432C35.1021 28.2432 37.1072 29.9388 37.1072 32.023C37.1072 33.7971 35.6538 35.2888 33.7008 35.6936V36.1118C33.7008 36.6465 33.2253 37.0799 32.6368 37.0799C32.0498 37.0799 31.5729 36.6465 31.5729 36.1118V35.6936C29.6199 35.2888 28.1665 33.7971 28.1665 32.023C28.1665 31.4883 28.6434 31.0549 29.2318 31.0549C29.8189 31.0549 30.2958 31.4883 30.2958 32.023C30.2958 33.0396 31.3457 33.8665 32.6368 33.8665C33.928 33.8665 34.9779 33.0396 34.9779 32.023C34.9779 31.0065 33.928 30.1795 32.6368 30.1795C30.1716 30.1795 28.1665 28.484 28.1665 26.3999C28.1665 24.6258 29.6199 23.1341 31.5729 22.7293V22.2257C31.5729 21.6912 32.0498 21.2576 32.6368 21.2576C33.2253 21.2576 33.7008 21.6912 33.7008 22.2257V22.7293C35.6538 23.1341 37.1072 24.6258 37.1072 26.3999C37.1072 26.9344 36.6303 27.368 36.0433 27.368C35.4548 27.368 34.9779 26.9344 34.9779 26.3999C34.9779 25.3833 33.928 24.5564 32.6368 24.5564C31.3457 24.5564 30.2958 25.3833 30.2958 26.3999Z" fill="white"/>
<path d="M36.818 15.5539L36.4977 15.7016L36.5682 15.8546L36.7305 15.8959L36.818 15.5539ZM36.4088 14.8705V14.5178H35.7018L36.1265 15.0826L36.4088 14.8705ZM21.2238 38.9631L21.4693 38.7103L21.3677 38.6104H21.2238V38.9631ZM7.75616 32.1034L7.96357 32.3891L8.35868 32.1034L7.96357 31.8176L7.75616 32.1034ZM7.75616 26.0802L7.96357 26.366L8.35868 26.0802L7.96357 25.7945L7.75616 26.0802ZM7.75616 20.0572L7.96357 20.3429L8.35868 20.0572L7.96357 19.7714L7.75616 20.0572ZM12.7839 13.1974V13.5502H13.4937L13.0647 12.9846L12.7839 13.1974ZM12.7839 8.84737L13.0647 9.06015L13.4923 8.49463H12.7839V8.84737ZM31.4388 7.17438L31.1566 6.9616L30.729 7.52712H31.4388V7.17438ZM21.578 19.2206V19.5733H21.7149L21.8151 19.4812L21.578 19.2206ZM33.9605 15.0891L33.9337 15.4407L34.103 14.7663L33.9605 15.0891ZM20.006 20.8937L20.2812 21.1144L20.7412 20.541H20.006V20.8937ZM17.6424 25.2438V25.5965H17.8992L17.9782 25.3524L17.6424 25.2438ZM17.2205 26.9167L17.5676 26.9802L17.6438 26.564H17.2205V26.9167ZM17.164 31.2668V31.6195H17.5761L17.5126 31.2125L17.164 31.2668ZM19.7464 37.29V37.6427H20.4547L20.0272 37.0775L19.7464 37.29ZM17.5394 32.9399L17.878 32.8402L17.8033 32.5872H17.5394V32.9399ZM33.7008 35.6936L33.6303 35.3482L33.348 35.4064V35.6936H33.7008ZM31.5729 35.6936H31.9257V35.4064L31.6448 35.3482L31.5729 35.6936ZM31.5729 22.7293L31.6448 23.0747L31.9257 23.0164V22.7293H31.5729ZM33.7008 22.7293H33.348V23.0164L33.6303 23.0747L33.7008 22.7293ZM37.1383 15.406C37.0155 15.1405 36.8645 14.8903 36.691 14.6585L36.1265 15.0826C36.2719 15.2749 36.3961 15.4821 36.4977 15.7016L37.1383 15.406ZM48.629 29.2593C48.629 22.5467 43.6351 16.9111 36.9041 15.2119L36.7305 15.8959C43.199 17.5285 47.9234 22.9188 47.9234 29.2593H48.629ZM32.6411 43.8332C41.4253 43.8332 48.629 37.3264 48.629 29.2593H47.9234C47.9234 36.8753 41.0993 43.1277 32.6411 43.1277V43.8332ZM20.9783 39.2158C23.8993 42.0585 28.0493 43.8332 32.6411 43.8332V43.1277C28.2314 43.1277 24.2591 41.4234 21.4693 38.7103L20.9783 39.2158ZM10.385 39.3158H21.2238V38.6104H10.385V39.3158ZM5.80176 35.1149C5.80176 37.4622 7.8902 39.3158 10.385 39.3158V38.6104C8.21617 38.6104 6.50731 37.0113 6.50731 35.1149H5.80176ZM7.55012 31.8176C6.49461 32.5814 5.80176 33.77 5.80176 35.1149H6.50731C6.50731 34.0227 7.06893 33.0366 7.96357 32.3891L7.55012 31.8176ZM5.80176 29.0918C5.80176 30.4369 6.49461 31.6255 7.55012 32.3891L7.96357 31.8176C7.06893 31.1703 6.50731 30.184 6.50731 29.0918H5.80176ZM7.55012 25.7945C6.49461 26.5582 5.80176 27.7468 5.80176 29.0918H6.50731C6.50731 27.9997 7.06893 27.0134 7.96357 26.366L7.55012 25.7945ZM5.80176 23.0687C5.80176 24.4137 6.49461 25.6023 7.55012 26.366L7.96357 25.7945C7.06893 25.1471 6.50731 24.1608 6.50731 23.0687H5.80176ZM7.55012 19.7714C6.49461 20.535 5.80176 21.7237 5.80176 23.0687H6.50731C6.50731 21.9765 7.06893 20.9902 7.96357 20.3429L7.55012 19.7714ZM5.80176 17.0456C5.80176 18.3905 6.49461 19.5791 7.55012 20.3429L7.96357 19.7714C7.06893 19.1239 6.50731 18.1378 6.50731 17.0456H5.80176ZM10.385 12.8447C7.8902 12.8447 5.80176 14.6983 5.80176 17.0456H6.50731C6.50731 15.1492 8.21617 13.5502 10.385 13.5502V12.8447ZM12.7839 12.8447H10.385V13.5502H12.7839V12.8447ZM11.6875 11.0224C11.6875 11.9114 11.9909 12.7343 12.5031 13.4102L13.0647 12.9846C12.64 12.4222 12.3931 11.7468 12.3931 11.0224H11.6875ZM12.5031 8.63474C11.9909 9.31059 11.6875 10.1335 11.6875 11.0224H12.3931C12.3931 10.298 12.64 9.62271 13.0647 9.06015L12.5031 8.63474ZM5.41935 9.20011H12.7839V8.49463H5.41935V9.20011ZM0.83606 4.99936C0.83606 7.34666 2.92451 9.20011 5.41935 9.20011V8.49463C3.24906 8.49463 1.54162 6.89557 1.54162 4.99936H0.83606ZM5.41935 0.798462C2.92451 0.798462 0.83606 2.65206 0.83606 4.99936H1.54162C1.54162 3.10301 3.24906 1.50395 5.41935 1.50395V0.798462ZM27.9506 0.798462H5.41935V1.50395H27.9506V0.798462ZM32.5338 4.99936C32.5338 2.65206 30.4468 0.798462 27.9506 0.798462V1.50395C30.1208 1.50395 31.8283 3.10301 31.8283 4.99936H32.5338ZM31.7196 7.38701C32.2305 6.71115 32.5338 5.88827 32.5338 4.99936H31.8283C31.8283 5.72375 31.5828 6.39905 31.1566 6.9616L31.7196 7.38701ZM38.8034 6.82163H31.4388V7.52712H38.8034V6.82163ZM43.3867 11.0224C43.3867 8.67509 41.2983 6.82163 38.8034 6.82163V7.52712C40.9737 7.52712 42.6812 9.12618 42.6812 11.0224H43.3867ZM38.8034 15.2233C41.2983 15.2233 43.3867 13.3697 43.3867 11.0224H42.6812C42.6812 12.9187 40.9737 14.5178 38.8034 14.5178V15.2233ZM36.4088 15.2233H38.8034V14.5178H36.4088V15.2233ZM38.8034 9.20011C39.9591 9.20011 40.8411 10.0487 40.8411 11.0224H41.5466C41.5466 9.59773 40.2837 8.49463 38.8034 8.49463V9.20011ZM16.2708 9.20011H38.8034V8.49463H16.2708V9.20011ZM14.2332 11.0224C14.2332 10.0487 15.1151 9.20011 16.2708 9.20011V8.49463C14.7905 8.49463 13.5276 9.59773 13.5276 11.0224H14.2332ZM16.2708 12.8447C15.1151 12.8447 14.2332 11.9962 14.2332 11.0224H13.5276C13.5276 12.4472 14.7905 13.5502 16.2708 13.5502V12.8447ZM32.9177 12.8447H16.2708V13.5502H32.9177V12.8447ZM38.8034 12.8447H32.9177V13.5502H38.8034V12.8447ZM40.8411 11.0224C40.8411 11.9962 39.9591 12.8447 38.8034 12.8447V13.5502C40.2837 13.5502 41.5466 12.4472 41.5466 11.0224H40.8411ZM5.41935 6.82163C4.26365 6.82163 3.38028 5.97307 3.38028 4.99936H2.67473C2.67473 6.42402 3.93768 7.52712 5.41935 7.52712V6.82163ZM27.9506 6.82163H5.41935V7.52712H27.9506V6.82163ZM29.9896 4.99936C29.9896 5.97307 29.1063 6.82163 27.9506 6.82163V7.52712C29.4322 7.52712 30.6952 6.42402 30.6952 4.99936H29.9896ZM27.9506 3.17708C29.1063 3.17708 29.9896 4.0255 29.9896 4.99936H30.6952C30.6952 3.57455 29.4322 2.47159 27.9506 2.47159V3.17708ZM5.41935 3.17708H27.9506V2.47159H5.41935V3.17708ZM3.38028 4.99936C3.38028 4.0255 4.26365 3.17708 5.41935 3.17708V2.47159C3.93768 2.47159 2.67473 3.57455 2.67473 4.99936H3.38028ZM10.385 15.2233H32.9177V14.5178H10.385V15.2233ZM8.3474 17.0456C8.3474 16.0717 9.22935 15.2233 10.385 15.2233V14.5178C8.90479 14.5178 7.64185 15.6208 7.64185 17.0456H8.3474ZM10.385 18.8678C9.22935 18.8678 8.3474 18.0193 8.3474 17.0456H7.64185C7.64185 18.4704 8.90479 19.5733 10.385 19.5733V18.8678ZM21.578 18.8678H10.385V19.5733H21.578V18.8678ZM32.6411 14.6851C28.237 14.6851 24.2379 16.3179 21.3409 18.96L21.8151 19.4812C24.5822 16.9585 28.412 15.3906 32.6411 15.3906V14.6851ZM33.9873 14.7373C33.5442 14.7035 33.0955 14.6851 32.6411 14.6851V15.3906C33.0757 15.3906 33.5075 15.4083 33.9337 15.4407L33.9873 14.7373ZM32.9177 15.2233C33.238 15.2233 33.5442 15.291 33.818 15.4118L34.103 14.7663C33.7403 14.6067 33.3382 14.5178 32.9177 14.5178V15.2233ZM10.385 21.2465H20.006V20.541H10.385V21.2465ZM8.3474 23.0687C8.3474 22.0949 9.22935 21.2465 10.385 21.2465V20.541C8.90479 20.541 7.64185 21.6439 7.64185 23.0687H8.3474ZM10.385 24.891C9.22935 24.891 8.3474 24.0426 8.3474 23.0687H7.64185C7.64185 24.4935 8.90479 25.5965 10.385 25.5965V24.891ZM17.6424 24.891H10.385V25.5965H17.6424V24.891ZM19.7308 20.6729C18.6612 22.0057 17.8329 23.5109 17.3065 25.135L17.9782 25.3524C18.4778 23.8136 19.2638 22.3837 20.2812 21.1144L19.7308 20.6729ZM10.385 27.2695H17.2205V26.564H10.385V27.2695ZM8.3474 29.0918C8.3474 28.1179 9.22935 27.2695 10.385 27.2695V26.564C8.90479 26.564 7.64185 27.667 7.64185 29.0918H8.3474ZM10.385 30.914C9.22935 30.914 8.3474 30.0656 8.3474 29.0918H7.64185C7.64185 30.5167 8.90479 31.6195 10.385 31.6195V30.914ZM17.164 30.914H10.385V31.6195H17.164V30.914ZM16.6546 29.2593C16.6546 29.9594 16.7097 30.6477 16.8155 31.3213L17.5126 31.2125C17.4124 30.5739 17.3602 29.922 17.3602 29.2593H16.6546ZM16.8733 26.8533C16.7308 27.6361 16.6546 28.4396 16.6546 29.2593H17.3602C17.3602 28.4832 17.4321 27.7221 17.5676 26.9802L16.8733 26.8533ZM10.385 36.9372C9.22935 36.9372 8.3474 36.0888 8.3474 35.1149H7.64185C7.64185 36.5397 8.90479 37.6427 10.385 37.6427V36.9372ZM19.7464 36.9372H10.385V37.6427H19.7464V36.9372ZM17.2007 33.0397C17.6777 34.656 18.451 36.1606 19.4641 37.5025L20.0272 37.0775C19.0634 35.8003 18.3296 34.3714 17.878 32.8402L17.2007 33.0397ZM10.385 33.2927H17.5394V32.5872H10.385V33.2927ZM8.3474 35.1149C8.3474 34.1411 9.22935 33.2927 10.385 33.2927V32.5872C8.90479 32.5872 7.64185 33.6901 7.64185 35.1149H8.3474ZM32.6411 41.4546C25.1975 41.4546 19.1988 35.9528 19.1988 29.2593H18.4933C18.4933 36.4037 24.8729 42.1601 32.6411 42.1601V41.4546ZM46.0833 29.2593C46.0833 35.9528 40.0847 41.4546 32.6411 41.4546V42.1601C40.4107 42.1601 46.7889 36.4037 46.7889 29.2593H46.0833ZM32.6411 17.0638C40.0847 17.0638 46.0833 22.5656 46.0833 29.2593H46.7889C46.7889 22.1146 40.4107 16.3583 32.6411 16.3583V17.0638ZM19.1988 29.2593C19.1988 22.5656 25.1975 17.0638 32.6411 17.0638V16.3583C24.8729 16.3583 18.4933 22.1146 18.4933 29.2593H19.1988ZM32.6369 27.8905C31.4572 27.8905 30.6486 27.1476 30.6486 26.3999H29.943C29.943 27.685 31.2342 28.596 32.6369 28.596V27.8905ZM37.46 32.0229C37.46 29.6909 35.2389 27.8905 32.6369 27.8905V28.596C34.9652 28.596 36.7545 30.1867 36.7545 32.0229H37.46ZM33.7728 36.039C35.8443 35.6094 37.46 34.0059 37.46 32.0229H36.7545C36.7545 33.5881 35.4633 34.9681 33.6303 35.3482L33.7728 36.039ZM34.0536 36.1118V35.6936H33.348V36.1118H34.0536ZM32.6369 37.4326C33.3876 37.4326 34.0536 36.8719 34.0536 36.1118H33.348C33.348 36.4209 33.0616 36.7271 32.6369 36.7271V37.4326ZM31.2201 36.1118C31.2201 36.8719 31.8861 37.4326 32.6369 37.4326V36.7271C32.2121 36.7271 31.9257 36.4209 31.9257 36.1118H31.2201ZM31.2201 35.6936V36.1118H31.9257V35.6936H31.2201ZM27.8137 32.0229C27.8137 34.0059 29.4294 35.6094 31.5009 36.039L31.6448 35.3482C29.8104 34.9681 28.5192 33.5881 28.5192 32.0229H27.8137ZM29.2318 30.7021C28.4811 30.7021 27.8137 31.2628 27.8137 32.0229H28.5192C28.5192 31.7139 28.8057 31.4076 29.2318 31.4076V30.7021ZM30.6486 32.0229C30.6486 31.2628 29.9811 30.7021 29.2318 30.7021V31.4076C29.6566 31.4076 29.943 31.7138 29.943 32.0229H30.6486ZM32.6369 33.5138C31.4572 33.5138 30.6486 32.7707 30.6486 32.0229H29.943C29.943 33.3082 31.2342 34.2193 32.6369 34.2193V33.5138ZM34.6251 32.0229C34.6251 32.7707 33.8165 33.5138 32.6369 33.5138V34.2193C34.0395 34.2193 35.3307 33.3082 35.3307 32.0229H34.6251ZM32.6369 30.5322C33.8165 30.5322 34.6251 31.2751 34.6251 32.0229H35.3307C35.3307 30.7377 34.0395 29.8267 32.6369 29.8267V30.5322ZM27.8137 26.3999C27.8137 28.7318 30.0348 30.5322 32.6369 30.5322V29.8267C30.3099 29.8267 28.5192 28.236 28.5192 26.3999H27.8137ZM31.5009 22.3838C29.4294 22.8135 27.8137 24.4169 27.8137 26.3999H28.5192C28.5192 24.8347 29.8104 23.4548 31.6448 23.0747L31.5009 22.3838ZM31.2201 22.2257V22.7293H31.9257V22.2257H31.2201ZM32.6369 20.9049C31.8861 20.9049 31.2201 21.4656 31.2201 22.2257H31.9257C31.9257 21.9167 32.2121 21.6104 32.6369 21.6104V20.9049ZM34.0536 22.2257C34.0536 21.4656 33.3876 20.9049 32.6369 20.9049V21.6104C33.0616 21.6104 33.348 21.9167 33.348 22.2257H34.0536ZM34.0536 22.7293V22.2257H33.348V22.7293H34.0536ZM37.46 26.3999C37.46 24.4169 35.8443 22.8135 33.7728 22.3838L33.6303 23.0747C35.4633 23.4548 36.7545 24.8347 36.7545 26.3999H37.46ZM36.0433 27.7207C36.7926 27.7207 37.46 27.16 37.46 26.3999H36.7545C36.7545 26.7089 36.468 27.0152 36.0433 27.0152V27.7207ZM34.6251 26.3999C34.6251 27.16 35.2926 27.7207 36.0433 27.7207V27.0152C35.6171 27.0152 35.3307 26.7089 35.3307 26.3999H34.6251ZM32.6369 24.9091C33.8165 24.9091 34.6251 25.6521 34.6251 26.3999H35.3307C35.3307 25.1147 34.0395 24.2036 32.6369 24.2036V24.9091ZM30.6486 26.3999C30.6486 25.6521 31.4572 24.9091 32.6369 24.9091V24.2036C31.2342 24.2036 29.943 25.1147 29.943 26.3999H30.6486Z" fill="white"/>
<path d="M67.2188 37H61.5742V14.9102C61.5742 13.1133 61.9388 11.5964 62.668 10.3594C63.4102 9.1224 64.4648 8.1849 65.832 7.54688C67.2122 6.90885 68.8789 6.58984 70.832 6.58984C71.9388 6.58984 73.013 6.70052 74.0547 6.92188C75.0964 7.13021 76.1706 7.40365 77.2773 7.74219L76.457 12.2539C75.7409 12.0326 74.9727 11.8242 74.1523 11.6289C73.332 11.4336 72.3424 11.3359 71.1836 11.3359C69.8815 11.3359 68.8919 11.6419 68.2148 12.2539C67.5508 12.8529 67.2188 13.7383 67.2188 14.9102V37ZM71.418 15.8672V19.8516H58.4297V15.8672H71.418ZM79.8945 15.8672V37H74.25V15.8672H79.8945ZM90.1094 20.3789V37H84.4844V15.8672H89.7578L90.1094 20.3789ZM89.2891 25.6914H87.7656C87.7656 24.1289 87.9674 22.7227 88.3711 21.4727C88.7747 20.2096 89.3411 19.1354 90.0703 18.25C90.7995 17.3516 91.6654 16.668 92.668 16.1992C93.6836 15.7174 94.8164 15.4766 96.0664 15.4766C97.056 15.4766 97.9609 15.6198 98.7812 15.9062C99.6016 16.1927 100.305 16.6484 100.891 17.2734C101.49 17.8984 101.945 18.7253 102.258 19.7539C102.583 20.7826 102.746 22.0391 102.746 23.5234V37H97.082V23.5039C97.082 22.5664 96.9518 21.8372 96.6914 21.3164C96.431 20.7956 96.0469 20.431 95.5391 20.2227C95.0443 20.0013 94.4323 19.8906 93.7031 19.8906C92.9479 19.8906 92.2904 20.0404 91.7305 20.3398C91.1836 20.6393 90.7279 21.056 90.3633 21.5898C90.0117 22.1107 89.7448 22.7227 89.5625 23.4258C89.3802 24.1289 89.2891 24.8841 89.2891 25.6914ZM118.43 32.2344V22.8203C118.43 22.1432 118.319 21.5638 118.098 21.082C117.876 20.5872 117.531 20.2031 117.062 19.9297C116.607 19.6562 116.014 19.5195 115.285 19.5195C114.66 19.5195 114.12 19.6302 113.664 19.8516C113.208 20.0599 112.857 20.3659 112.609 20.7695C112.362 21.1602 112.238 21.6224 112.238 22.1562H106.613C106.613 21.2578 106.822 20.4049 107.238 19.5977C107.655 18.7904 108.26 18.0807 109.055 17.4688C109.849 16.8438 110.793 16.3555 111.887 16.0039C112.993 15.6523 114.23 15.4766 115.598 15.4766C117.238 15.4766 118.697 15.75 119.973 16.2969C121.249 16.8438 122.251 17.6641 122.98 18.7578C123.723 19.8516 124.094 21.2188 124.094 22.8594V31.9023C124.094 33.0612 124.165 34.0117 124.309 34.7539C124.452 35.4831 124.66 36.1211 124.934 36.668V37H119.25C118.977 36.4271 118.768 35.7109 118.625 34.8516C118.495 33.9792 118.43 33.1068 118.43 32.2344ZM119.172 24.1289L119.211 27.3125H116.066C115.324 27.3125 114.68 27.3971 114.133 27.5664C113.586 27.7357 113.137 27.9766 112.785 28.2891C112.434 28.5885 112.173 28.9401 112.004 29.3438C111.848 29.7474 111.77 30.1901 111.77 30.6719C111.77 31.1536 111.88 31.5898 112.102 31.9805C112.323 32.3581 112.642 32.6576 113.059 32.8789C113.475 33.0872 113.964 33.1914 114.523 33.1914C115.37 33.1914 116.105 33.0221 116.73 32.6836C117.355 32.3451 117.837 31.9284 118.176 31.4336C118.527 30.9388 118.71 30.4701 118.723 30.0273L120.207 32.4102C119.999 32.944 119.712 33.4974 119.348 34.0703C118.996 34.6432 118.547 35.1836 118 35.6914C117.453 36.1862 116.796 36.5964 116.027 36.9219C115.259 37.2344 114.348 37.3906 113.293 37.3906C111.952 37.3906 110.734 37.1237 109.641 36.5898C108.56 36.043 107.701 35.2943 107.062 34.3438C106.438 33.3802 106.125 32.2865 106.125 31.0625C106.125 29.9557 106.333 28.9727 106.75 28.1133C107.167 27.2539 107.779 26.5312 108.586 25.9453C109.406 25.3464 110.428 24.8971 111.652 24.5977C112.876 24.2852 114.296 24.1289 115.91 24.1289H119.172ZM133.938 20.3789V37H128.312V15.8672H133.586L133.938 20.3789ZM133.117 25.6914H131.594C131.594 24.1289 131.796 22.7227 132.199 21.4727C132.603 20.2096 133.169 19.1354 133.898 18.25C134.628 17.3516 135.493 16.668 136.496 16.1992C137.512 15.7174 138.645 15.4766 139.895 15.4766C140.884 15.4766 141.789 15.6198 142.609 15.9062C143.43 16.1927 144.133 16.6484 144.719 17.2734C145.318 17.8984 145.773 18.7253 146.086 19.7539C146.411 20.7826 146.574 22.0391 146.574 23.5234V37H140.91V23.5039C140.91 22.5664 140.78 21.8372 140.52 21.3164C140.259 20.7956 139.875 20.431 139.367 20.2227C138.872 20.0013 138.26 19.8906 137.531 19.8906C136.776 19.8906 136.118 20.0404 135.559 20.3398C135.012 20.6393 134.556 21.056 134.191 21.5898C133.84 22.1107 133.573 22.7227 133.391 23.4258C133.208 24.1289 133.117 24.8841 133.117 25.6914ZM159.582 32.9961C160.272 32.9961 160.884 32.8659 161.418 32.6055C161.952 32.332 162.368 31.9544 162.668 31.4727C162.98 30.9779 163.143 30.3984 163.156 29.7344H168.449C168.436 31.2188 168.039 32.5404 167.258 33.6992C166.477 34.8451 165.428 35.75 164.113 36.4141C162.798 37.0651 161.327 37.3906 159.699 37.3906C158.059 37.3906 156.626 37.1172 155.402 36.5703C154.191 36.0234 153.182 35.2682 152.375 34.3047C151.568 33.3281 150.962 32.1953 150.559 30.9062C150.155 29.6042 149.953 28.2109 149.953 26.7266V26.1602C149.953 24.6628 150.155 23.2695 150.559 21.9805C150.962 20.6784 151.568 19.5456 152.375 18.582C153.182 17.6055 154.191 16.8438 155.402 16.2969C156.613 15.75 158.033 15.4766 159.66 15.4766C161.392 15.4766 162.909 15.8086 164.211 16.4727C165.526 17.1367 166.555 18.0872 167.297 19.3242C168.052 20.5482 168.436 22 168.449 23.6797H163.156C163.143 22.9766 162.993 22.3385 162.707 21.7656C162.434 21.1927 162.03 20.737 161.496 20.3984C160.975 20.0469 160.331 19.8711 159.562 19.8711C158.742 19.8711 158.072 20.0469 157.551 20.3984C157.03 20.737 156.626 21.2057 156.34 21.8047C156.053 22.3906 155.852 23.0612 155.734 23.8164C155.63 24.5586 155.578 25.3398 155.578 26.1602V26.7266C155.578 27.5469 155.63 28.3346 155.734 29.0898C155.839 29.8451 156.034 30.5156 156.32 31.1016C156.62 31.6875 157.03 32.1497 157.551 32.4883C158.072 32.8268 158.749 32.9961 159.582 32.9961ZM181.438 37.3906C179.797 37.3906 178.326 37.1302 177.023 36.6094C175.721 36.0755 174.615 35.3398 173.703 34.4023C172.805 33.4648 172.115 32.3776 171.633 31.1406C171.151 29.8906 170.91 28.5625 170.91 27.1562V26.375C170.91 24.7734 171.138 23.3086 171.594 21.9805C172.049 20.6523 172.701 19.5 173.547 18.5234C174.406 17.5469 175.448 16.7982 176.672 16.2773C177.896 15.7435 179.276 15.4766 180.812 15.4766C182.31 15.4766 183.638 15.724 184.797 16.2188C185.956 16.7135 186.926 17.4167 187.707 18.3281C188.501 19.2396 189.1 20.3333 189.504 21.6094C189.908 22.8724 190.109 24.2786 190.109 25.8281V28.1719H173.312V24.4219H184.582V23.9922C184.582 23.2109 184.439 22.5143 184.152 21.9023C183.879 21.2773 183.462 20.7826 182.902 20.418C182.342 20.0534 181.626 19.8711 180.754 19.8711C180.012 19.8711 179.374 20.0339 178.84 20.3594C178.306 20.6849 177.87 21.1406 177.531 21.7266C177.206 22.3125 176.958 23.0026 176.789 23.7969C176.633 24.5781 176.555 25.4375 176.555 26.375V27.1562C176.555 28.0026 176.672 28.7839 176.906 29.5C177.154 30.2161 177.499 30.8346 177.941 31.3555C178.397 31.8763 178.944 32.2799 179.582 32.5664C180.233 32.8529 180.969 32.9961 181.789 32.9961C182.805 32.9961 183.749 32.8008 184.621 32.4102C185.507 32.0065 186.268 31.401 186.906 30.5938L189.641 33.5625C189.198 34.2005 188.592 34.8125 187.824 35.3984C187.069 35.9844 186.158 36.4661 185.09 36.8438C184.022 37.2083 182.805 37.3906 181.438 37.3906ZM204.738 31.1602C204.738 30.7565 204.621 30.3919 204.387 30.0664C204.152 29.7409 203.716 29.4414 203.078 29.168C202.453 28.8815 201.548 28.6211 200.363 28.3867C199.296 28.1523 198.299 27.8594 197.375 27.5078C196.464 27.1432 195.669 26.707 194.992 26.1992C194.328 25.6914 193.807 25.0924 193.43 24.4023C193.052 23.6992 192.863 22.8984 192.863 22C192.863 21.1146 193.052 20.2812 193.43 19.5C193.82 18.7188 194.374 18.0286 195.09 17.4297C195.819 16.8177 196.704 16.3424 197.746 16.0039C198.801 15.6523 199.986 15.4766 201.301 15.4766C203.137 15.4766 204.712 15.7695 206.027 16.3555C207.355 16.9414 208.371 17.7487 209.074 18.7773C209.79 19.793 210.148 20.9518 210.148 22.2539H204.523C204.523 21.707 204.406 21.2188 204.172 20.7891C203.951 20.3464 203.599 20.0013 203.117 19.7539C202.648 19.4935 202.036 19.3633 201.281 19.3633C200.656 19.3633 200.116 19.474 199.66 19.6953C199.204 19.9036 198.853 20.1901 198.605 20.5547C198.371 20.9062 198.254 21.2969 198.254 21.7266C198.254 22.0521 198.319 22.3451 198.449 22.6055C198.592 22.8529 198.82 23.0807 199.133 23.2891C199.445 23.4974 199.849 23.6927 200.344 23.875C200.852 24.0443 201.477 24.2005 202.219 24.3438C203.742 24.6562 205.103 25.0664 206.301 25.5742C207.499 26.069 208.449 26.7461 209.152 27.6055C209.855 28.4518 210.207 29.5651 210.207 30.9453C210.207 31.8828 209.999 32.7422 209.582 33.5234C209.165 34.3047 208.566 34.9883 207.785 35.5742C207.004 36.1471 206.066 36.5964 204.973 36.9219C203.892 37.2344 202.674 37.3906 201.32 37.3906C199.354 37.3906 197.688 37.0391 196.32 36.3359C194.966 35.6328 193.938 34.7409 193.234 33.6602C192.544 32.5664 192.199 31.4466 192.199 30.3008H197.531C197.557 31.069 197.753 31.6875 198.117 32.1562C198.495 32.625 198.97 32.9635 199.543 33.1719C200.129 33.3802 200.76 33.4844 201.438 33.4844C202.167 33.4844 202.772 33.3867 203.254 33.1914C203.736 32.9831 204.1 32.7096 204.348 32.3711C204.608 32.0195 204.738 31.6159 204.738 31.1602Z" fill="white"/>
</svg>
