<svg width="49" height="44" viewBox="0 0 49 44" fill="none" xmlns="http://www.w3.org/2000/svg">
<path d="M36.818 15.5539L36.4977 15.7016L36.5682 15.8546L36.7305 15.8959L36.818 15.5539ZM36.4088 14.8705V14.5178H35.7018L36.1265 15.0826L36.4088 14.8705ZM21.2238 38.9631L21.4693 38.7103L21.3677 38.6104H21.2238V38.9631ZM7.75616 32.1034L7.96357 32.3891L8.35868 32.1034L7.96357 31.8176L7.75616 32.1034ZM7.75616 26.0802L7.96357 26.366L8.35868 26.0802L7.96357 25.7945L7.75616 26.0802ZM7.75616 20.0572L7.96357 20.3429L8.35868 20.0572L7.96357 19.7714L7.75616 20.0572ZM12.7839 13.1974V13.5502H13.4937L13.0647 12.9846L12.7839 13.1974ZM12.7839 8.84737L13.0647 9.06015L13.4923 8.49463H12.7839V8.84737ZM31.4388 7.17438L31.1566 6.9616L30.729 7.52712H31.4388V7.17438ZM21.578 19.2206V19.5733H21.7149L21.8151 19.4812L21.578 19.2206ZM33.9605 15.0891L33.9337 15.4407L34.103 14.7663L33.9605 15.0891ZM20.006 20.8937L20.2812 21.1144L20.7412 20.541H20.006V20.8937ZM17.6424 25.2438V25.5965H17.8992L17.9782 25.3524L17.6424 25.2438ZM17.2205 26.9167L17.5676 26.9802L17.6438 26.564H17.2205V26.9167ZM17.164 31.2668V31.6195H17.5761L17.5126 31.2125L17.164 31.2668ZM19.7464 37.29V37.6427H20.4547L20.0272 37.0775L19.7464 37.29ZM17.5394 32.9399L17.878 32.8402L17.8033 32.5872H17.5394V32.9399ZM33.7008 35.6936L33.6303 35.3482L33.348 35.4064V35.6936H33.7008ZM31.5729 35.6936H31.9257V35.4064L31.6448 35.3482L31.5729 35.6936ZM31.5729 22.7293L31.6448 23.0747L31.9257 23.0164V22.7293H31.5729ZM33.7008 22.7293H33.348V23.0164L33.6303 23.0747L33.7008 22.7293ZM37.1383 15.406C37.0155 15.1405 36.8645 14.8903 36.691 14.6585L36.1265 15.0826C36.2719 15.2749 36.3961 15.4821 36.4977 15.7016L37.1383 15.406ZM48.629 29.2593C48.629 22.5467 43.6351 16.9111 36.9041 15.2119L36.7305 15.8959C43.199 17.5285 47.9234 22.9188 47.9234 29.2593H48.629ZM32.6411 43.8332C41.4253 43.8332 48.629 37.3264 48.629 29.2593H47.9234C47.9234 36.8753 41.0993 43.1277 32.6411 43.1277V43.8332ZM20.9783 39.2158C23.8993 42.0585 28.0493 43.8332 32.6411 43.8332V43.1277C28.2314 43.1277 24.2591 41.4234 21.4693 38.7103L20.9783 39.2158ZM10.385 39.3158H21.2238V38.6104H10.385V39.3158ZM5.80176 35.1149C5.80176 37.4622 7.8902 39.3158 10.385 39.3158V38.6104C8.21617 38.6104 6.50731 37.0113 6.50731 35.1149H5.80176ZM7.55012 31.8176C6.49461 32.5814 5.80176 33.77 5.80176 35.1149H6.50731C6.50731 34.0227 7.06893 33.0366 7.96357 32.3891L7.55012 31.8176ZM5.80176 29.0918C5.80176 30.4369 6.49461 31.6255 7.55012 32.3891L7.96357 31.8176C7.06893 31.1703 6.50731 30.184 6.50731 29.0918H5.80176ZM7.55012 25.7945C6.49461 26.5582 5.80176 27.7468 5.80176 29.0918H6.50731C6.50731 27.9997 7.06893 27.0134 7.96357 26.366L7.55012 25.7945ZM5.80176 23.0687C5.80176 24.4137 6.49461 25.6023 7.55012 26.366L7.96357 25.7945C7.06893 25.1471 6.50731 24.1608 6.50731 23.0687H5.80176ZM7.55012 19.7714C6.49461 20.535 5.80176 21.7237 5.80176 23.0687H6.50731C6.50731 21.9765 7.06893 20.9902 7.96357 20.3429L7.55012 19.7714ZM5.80176 17.0456C5.80176 18.3905 6.49461 19.5791 7.55012 20.3429L7.96357 19.7714C7.06893 19.1239 6.50731 18.1378 6.50731 17.0456H5.80176ZM10.385 12.8447C7.8902 12.8447 5.80176 14.6983 5.80176 17.0456H6.50731C6.50731 15.1492 8.21617 13.5502 10.385 13.5502V12.8447ZM12.7839 12.8447H10.385V13.5502H12.7839V12.8447ZM11.6875 11.0224C11.6875 11.9114 11.9909 12.7343 12.5031 13.4102L13.0647 12.9846C12.64 12.4222 12.3931 11.7468 12.3931 11.0224H11.6875ZM12.5031 8.63474C11.9909 9.31059 11.6875 10.1335 11.6875 11.0224H12.3931C12.3931 10.298 12.64 9.62271 13.0647 9.06015L12.5031 8.63474ZM5.41935 9.20011H12.7839V8.49463H5.41935V9.20011ZM0.83606 4.99936C0.83606 7.34666 2.92451 9.20011 5.41935 9.20011V8.49463C3.24906 8.49463 1.54162 6.89557 1.54162 4.99936H0.83606ZM5.41935 0.798462C2.92451 0.798462 0.83606 2.65206 0.83606 4.99936H1.54162C1.54162 3.10301 3.24906 1.50395 5.41935 1.50395V0.798462ZM27.9506 0.798462H5.41935V1.50395H27.9506V0.798462ZM32.5338 4.99936C32.5338 2.65206 30.4468 0.798462 27.9506 0.798462V1.50395C30.1208 1.50395 31.8283 3.10301 31.8283 4.99936H32.5338ZM31.7196 7.38701C32.2305 6.71115 32.5338 5.88827 32.5338 4.99936H31.8283C31.8283 5.72375 31.5828 6.39905 31.1566 6.9616L31.7196 7.38701ZM38.8034 6.82163H31.4388V7.52712H38.8034V6.82163ZM43.3867 11.0224C43.3867 8.67509 41.2983 6.82163 38.8034 6.82163V7.52712C40.9737 7.52712 42.6812 9.12618 42.6812 11.0224H43.3867ZM38.8034 15.2233C41.2983 15.2233 43.3867 13.3697 43.3867 11.0224H42.6812C42.6812 12.9187 40.9737 14.5178 38.8034 14.5178V15.2233ZM36.4088 15.2233H38.8034V14.5178H36.4088V15.2233ZM38.8034 9.20011C39.9591 9.20011 40.8411 10.0487 40.8411 11.0224H41.5466C41.5466 9.59773 40.2837 8.49463 38.8034 8.49463V9.20011ZM16.2708 9.20011H38.8034V8.49463H16.2708V9.20011ZM14.2332 11.0224C14.2332 10.0487 15.1151 9.20011 16.2708 9.20011V8.49463C14.7905 8.49463 13.5276 9.59773 13.5276 11.0224H14.2332ZM16.2708 12.8447C15.1151 12.8447 14.2332 11.9962 14.2332 11.0224H13.5276C13.5276 12.4472 14.7905 13.5502 16.2708 13.5502V12.8447ZM32.9177 12.8447H16.2708V13.5502H32.9177V12.8447ZM38.8034 12.8447H32.9177V13.5502H38.8034V12.8447ZM40.8411 11.0224C40.8411 11.9962 39.9591 12.8447 38.8034 12.8447V13.5502C40.2837 13.5502 41.5466 12.4472 41.5466 11.0224H40.8411ZM5.41935 6.82163C4.26365 6.82163 3.38028 5.97307 3.38028 4.99936H2.67473C2.67473 6.42402 3.93768 7.52712 5.41935 7.52712V6.82163ZM27.9506 6.82163H5.41935V7.52712H27.9506V6.82163ZM29.9896 4.99936C29.9896 5.97307 29.1063 6.82163 27.9506 6.82163V7.52712C29.4322 7.52712 30.6952 6.42402 30.6952 4.99936H29.9896ZM27.9506 3.17708C29.1063 3.17708 29.9896 4.0255 29.9896 4.99936H30.6952C30.6952 3.57455 29.4322 2.47159 27.9506 2.47159V3.17708ZM5.41935 3.17708H27.9506V2.47159H5.41935V3.17708ZM3.38028 4.99936C3.38028 4.0255 4.26365 3.17708 5.41935 3.17708V2.47159C3.93768 2.47159 2.67473 3.57455 2.67473 4.99936H3.38028ZM10.385 15.2233H32.9177V14.5178H10.385V15.2233ZM8.3474 17.0456C8.3474 16.0717 9.22935 15.2233 10.385 15.2233V14.5178C8.90479 14.5178 7.64185 15.6208 7.64185 17.0456H8.3474ZM10.385 18.8678C9.22935 18.8678 8.3474 18.0193 8.3474 17.0456H7.64185C7.64185 18.4704 8.90479 19.5733 10.385 19.5733V18.8678ZM21.578 18.8678H10.385V19.5733H21.578V18.8678ZM32.6411 14.6851C28.237 14.6851 24.2379 16.3179 21.3409 18.96L21.8151 19.4812C24.5822 16.9585 28.412 15.3906 32.6411 15.3906V14.6851ZM33.9873 14.7373C33.5442 14.7035 33.0955 14.6851 32.6411 14.6851V15.3906C33.0757 15.3906 33.5075 15.4083 33.9337 15.4407L33.9873 14.7373ZM32.9177 15.2233C33.238 15.2233 33.5442 15.291 33.818 15.4118L34.103 14.7663C33.7403 14.6067 33.3382 14.5178 32.9177 14.5178V15.2233ZM10.385 21.2465H20.006V20.541H10.385V21.2465ZM8.3474 23.0687C8.3474 22.0949 9.22935 21.2465 10.385 21.2465V20.541C8.90479 20.541 7.64185 21.6439 7.64185 23.0687H8.3474ZM10.385 24.891C9.22935 24.891 8.3474 24.0426 8.3474 23.0687H7.64185C7.64185 24.4935 8.90479 25.5965 10.385 25.5965V24.891ZM17.6424 24.891H10.385V25.5965H17.6424V24.891ZM19.7308 20.6729C18.6612 22.0057 17.8329 23.5109 17.3065 25.135L17.9782 25.3524C18.4778 23.8136 19.2638 22.3837 20.2812 21.1144L19.7308 20.6729ZM10.385 27.2695H17.2205V26.564H10.385V27.2695ZM8.3474 29.0918C8.3474 28.1179 9.22935 27.2695 10.385 27.2695V26.564C8.90479 26.564 7.64185 27.667 7.64185 29.0918H8.3474ZM10.385 30.914C9.22935 30.914 8.3474 30.0656 8.3474 29.0918H7.64185C7.64185 30.5167 8.90479 31.6195 10.385 31.6195V30.914ZM17.164 30.914H10.385V31.6195H17.164V30.914ZM16.6546 29.2593C16.6546 29.9594 16.7097 30.6477 16.8155 31.3213L17.5126 31.2125C17.4124 30.5739 17.3602 29.922 17.3602 29.2593H16.6546ZM16.8733 26.8533C16.7308 27.6361 16.6546 28.4396 16.6546 29.2593H17.3602C17.3602 28.4832 17.4321 27.7221 17.5676 26.9802L16.8733 26.8533ZM10.385 36.9372C9.22935 36.9372 8.3474 36.0888 8.3474 35.1149H7.64185C7.64185 36.5397 8.90479 37.6427 10.385 37.6427V36.9372ZM19.7464 36.9372H10.385V37.6427H19.7464V36.9372ZM17.2007 33.0397C17.6777 34.656 18.451 36.1606 19.4641 37.5025L20.0272 37.0775C19.0634 35.8003 18.3296 34.3714 17.878 32.8402L17.2007 33.0397ZM10.385 33.2927H17.5394V32.5872H10.385V33.2927ZM8.3474 35.1149C8.3474 34.1411 9.22935 33.2927 10.385 33.2927V32.5872C8.90479 32.5872 7.64185 33.6901 7.64185 35.1149H8.3474ZM32.6411 41.4546C25.1975 41.4546 19.1988 35.9528 19.1988 29.2593H18.4933C18.4933 36.4037 24.8729 42.1601 32.6411 42.1601V41.4546ZM46.0833 29.2593C46.0833 35.9528 40.0847 41.4546 32.6411 41.4546V42.1601C40.4107 42.1601 46.7889 36.4037 46.7889 29.2593H46.0833ZM32.6411 17.0638C40.0847 17.0638 46.0833 22.5656 46.0833 29.2593H46.7889C46.7889 22.1146 40.4107 16.3583 32.6411 16.3583V17.0638ZM19.1988 29.2593C19.1988 22.5656 25.1975 17.0638 32.6411 17.0638V16.3583C24.8729 16.3583 18.4933 22.1146 18.4933 29.2593H19.1988ZM32.6369 27.8905C31.4572 27.8905 30.6486 27.1476 30.6486 26.3999H29.943C29.943 27.685 31.2342 28.596 32.6369 28.596V27.8905ZM37.46 32.0229C37.46 29.6909 35.2389 27.8905 32.6369 27.8905V28.596C34.9652 28.596 36.7545 30.1867 36.7545 32.0229H37.46ZM33.7728 36.039C35.8443 35.6094 37.46 34.0059 37.46 32.0229H36.7545C36.7545 33.5881 35.4633 34.9681 33.6303 35.3482L33.7728 36.039ZM34.0536 36.1118V35.6936H33.348V36.1118H34.0536ZM32.6369 37.4326C33.3876 37.4326 34.0536 36.8719 34.0536 36.1118H33.348C33.348 36.4209 33.0616 36.7271 32.6369 36.7271V37.4326ZM31.2201 36.1118C31.2201 36.8719 31.8861 37.4326 32.6369 37.4326V36.7271C32.2121 36.7271 31.9257 36.4209 31.9257 36.1118H31.2201ZM31.2201 35.6936V36.1118H31.9257V35.6936H31.2201ZM27.8137 32.0229C27.8137 34.0059 29.4294 35.6094 31.5009 36.039L31.6448 35.3482C29.8104 34.9681 28.5192 33.5881 28.5192 32.0229H27.8137ZM29.2318 30.7021C28.4811 30.7021 27.8137 31.2628 27.8137 32.0229H28.5192C28.5192 31.7139 28.8057 31.4076 29.2318 31.4076V30.7021ZM30.6486 32.0229C30.6486 31.2628 29.9811 30.7021 29.2318 30.7021V31.4076C29.6566 31.4076 29.943 31.7138 29.943 32.0229H30.6486ZM32.6369 33.5138C31.4572 33.5138 30.6486 32.7707 30.6486 32.0229H29.943C29.943 33.3082 31.2342 34.2193 32.6369 34.2193V33.5138ZM34.6251 32.0229C34.6251 32.7707 33.8165 33.5138 32.6369 33.5138V34.2193C34.0395 34.2193 35.3307 33.3082 35.3307 32.0229H34.6251ZM32.6369 30.5322C33.8165 30.5322 34.6251 31.2751 34.6251 32.0229H35.3307C35.3307 30.7377 34.0395 29.8267 32.6369 29.8267V30.5322ZM27.8137 26.3999C27.8137 28.7318 30.0348 30.5322 32.6369 30.5322V29.8267C30.3099 29.8267 28.5192 28.236 28.5192 26.3999H27.8137ZM31.5009 22.3838C29.4294 22.8135 27.8137 24.4169 27.8137 26.3999H28.5192C28.5192 24.8347 29.8104 23.4548 31.6448 23.0747L31.5009 22.3838ZM31.2201 22.2257V22.7293H31.9257V22.2257H31.2201ZM32.6369 20.9049C31.8861 20.9049 31.2201 21.4656 31.2201 22.2257H31.9257C31.9257 21.9167 32.2121 21.6104 32.6369 21.6104V20.9049ZM34.0536 22.2257C34.0536 21.4656 33.3876 20.9049 32.6369 20.9049V21.6104C33.0616 21.6104 33.348 21.9167 33.348 22.2257H34.0536ZM34.0536 22.7293V22.2257H33.348V22.7293H34.0536ZM37.46 26.3999C37.46 24.4169 35.8443 22.8135 33.7728 22.3838L33.6303 23.0747C35.4633 23.4548 36.7545 24.8347 36.7545 26.3999H37.46ZM36.0433 27.7207C36.7926 27.7207 37.46 27.16 37.46 26.3999H36.7545C36.7545 26.7089 36.468 27.0152 36.0433 27.0152V27.7207ZM34.6251 26.3999C34.6251 27.16 35.2926 27.7207 36.0433 27.7207V27.0152C35.6171 27.0152 35.3307 26.7089 35.3307 26.3999H34.6251ZM32.6369 24.9091C33.8165 24.9091 34.6251 25.6521 34.6251 26.3999H35.3307C35.3307 25.1147 34.0395 24.2036 32.6369 24.2036V24.9091ZM30.6486 26.3999C30.6486 25.6521 31.4572 24.9091 32.6369 24.9091V24.2036C31.2342 24.2036 29.943 25.1147 29.943 26.3999H30.6486Z" fill="white"/>
</svg>
