<svg width="48" height="43" viewBox="0 0 48 43" fill="none" xmlns="http://www.w3.org/2000/svg">
<path fill-rule="evenodd" clip-rule="evenodd" d="M35.4088 13.8706C35.5682 14.0827 35.7051 14.3112 35.818 14.5539C42.4177 16.2199 47.2762 21.7328 47.2762 28.2593C47.2762 36.1008 40.2616 42.4805 31.6411 42.4805C27.1411 42.4805 23.0785 40.7411 20.2238 37.9631H9.38505C7.05248 37.9631 5.15454 36.2368 5.15454 34.115C5.15454 32.8963 5.78108 31.809 6.75616 31.1034C5.78108 30.3979 5.15454 29.3105 5.15454 28.0918C5.15454 26.8733 5.78108 25.7858 6.75616 25.0802C5.78108 24.3747 5.15454 23.2873 5.15454 22.0688C5.15454 20.8501 5.78108 19.7627 6.75616 19.0572C5.78108 18.3516 5.15454 17.2643 5.15454 16.0456C5.15454 13.9238 7.05248 12.1974 9.38505 12.1974H11.7839C11.3154 11.5783 11.0403 10.8292 11.0403 10.0224C11.0403 9.21577 11.3154 8.46669 11.7839 7.84741H4.41935C2.08679 7.84741 0.188843 6.12122 0.188843 3.9994C0.188843 1.87757 2.08679 0.151245 4.41935 0.151245H26.9506C29.2831 0.151245 31.1811 1.87757 31.1811 3.9994C31.1811 4.80605 30.9073 5.55514 30.4388 6.17442H37.8034C40.136 6.17442 42.0339 7.9006 42.0339 10.0224C42.0339 12.1443 40.136 13.8706 37.8034 13.8706H35.4088ZM40.1938 10.0224C40.1938 8.82324 39.1214 7.84741 37.8034 7.84741H15.2708C13.9528 7.84741 12.8804 8.82324 12.8804 10.0224C12.8804 11.2218 13.9528 12.1974 15.2708 12.1974H31.9177H37.8034C39.1214 12.1974 40.1938 11.2218 40.1938 10.0224ZM2.02751 3.9994C2.02751 5.19859 3.10138 6.17442 4.41935 6.17442H26.9506C28.2699 6.17442 29.3424 5.19859 29.3424 3.9994C29.3424 2.80007 28.2699 1.82438 26.9506 1.82438H4.41935C3.10138 1.82438 2.02751 2.80007 2.02751 3.9994ZM31.9177 13.8706H9.38505C8.06707 13.8706 6.99463 14.8463 6.99463 16.0456C6.99463 17.2449 8.06707 18.2206 9.38505 18.2206H20.578C23.4101 15.6383 27.3245 14.0379 31.6411 14.0379C32.0856 14.0379 32.5259 14.0558 32.9605 14.0891C32.643 13.9489 32.2874 13.8706 31.9177 13.8706ZM19.006 19.8938H9.38505C8.06707 19.8938 6.99463 20.8694 6.99463 22.0688C6.99463 23.2681 8.06707 24.2438 9.38505 24.2438H16.6424C17.156 22.6622 17.9632 21.1948 19.006 19.8938ZM16.2205 25.9168H9.38505C8.06707 25.9168 6.99463 26.8925 6.99463 28.0918C6.99463 29.2911 8.06707 30.2668 9.38505 30.2668H16.164C16.061 29.6107 16.0074 28.9407 16.0074 28.2593C16.0074 27.4614 16.0808 26.6791 16.2205 25.9168ZM6.99463 34.115C6.99463 35.3143 8.06707 36.29 9.38505 36.29H18.7464C17.7572 34.9805 17.0036 33.5138 16.5394 31.94H9.38505C8.06707 31.94 6.99463 32.9156 6.99463 34.115ZM17.8461 28.2593C17.8461 35.1783 24.0352 40.8074 31.6411 40.8074C39.2484 40.8074 45.4361 35.1783 45.4361 28.2593C45.4361 21.3401 39.2484 15.7111 31.6411 15.7111C24.0352 15.7111 17.8461 21.3401 17.8461 28.2593ZM29.2958 25.3999C29.2958 26.4163 30.3457 27.2432 31.6368 27.2432C34.1021 27.2432 36.1072 28.9388 36.1072 31.023C36.1072 32.7971 34.6538 34.2888 32.7008 34.6936V35.1118C32.7008 35.6465 32.2253 36.0799 31.6368 36.0799C31.0498 36.0799 30.5729 35.6465 30.5729 35.1118V34.6936C28.6199 34.2888 27.1665 32.7971 27.1665 31.023C27.1665 30.4883 27.6434 30.0549 28.2318 30.0549C28.8189 30.0549 29.2958 30.4883 29.2958 31.023C29.2958 32.0396 30.3457 32.8665 31.6368 32.8665C32.928 32.8665 33.9779 32.0396 33.9779 31.023C33.9779 30.0065 32.928 29.1795 31.6368 29.1795C29.1716 29.1795 27.1665 27.484 27.1665 25.3999C27.1665 23.6258 28.6199 22.1341 30.5729 21.7293V21.2257C30.5729 20.6912 31.0498 20.2576 31.6368 20.2576C32.2253 20.2576 32.7008 20.6912 32.7008 21.2257V21.7293C34.6538 22.1341 36.1072 23.6258 36.1072 25.3999C36.1072 25.9344 35.6303 26.368 35.0433 26.368C34.4548 26.368 33.9779 25.9344 33.9779 25.3999C33.9779 24.3833 32.928 23.5564 31.6368 23.5564C30.3457 23.5564 29.2958 24.3833 29.2958 25.3999Z" fill="white"/>
</svg>
